PathFileType	4	(X/Y/Z)	/Users/itak/Documents/Research/Walk-IL/dataset/trc/00289_00010.trc
DataRate	CameraRate	NumFrames	NumMarkers	Units	OrigDataRate	OrigDataStartFrame	OrigNumFrames
100.000000	100.000000	4	53	mm	100.000000	331	662
Frame#	Time	RPSI			LPSI			L3			STRN			T10			C7			CLAV			RBAK			LBAK			LSHO			LUPA			LAEL			LAOL			LWTS			LWPS			LFRA			LIFD			LHPS			LHTS			RSHO			RUPA			RAEL			RAOL			RWTS			RWPS			RFRA			RIFD			RHTS			RHPS			RBHD			LFHD			RFHD			LBHD			LHIP			RHIP			RASI			LASI			LKNE			LTHI			LANK			LTIP			LTOE			LMT1			LMT5			LHEE			RKNE			RTHI			RANK			RTIP			RTOE			RMT1			RMT5			RHEE			
		X1	Y1	Z1	X2	Y2	Z2	X3	Y3	Z3	X4	Y4	Z4	X5	Y5	Z5	X6	Y6	Z6	X7	Y7	Z7	X8	Y8	Z8	X9	Y9	Z9	X10	Y10	Z10	X11	Y11	Z11	X12	Y12	Z12	X13	Y13	Z13	X14	Y14	Z14	X15	Y15	Z15	X16	Y16	Z16	X17	Y17	Z17	X18	Y18	Z18	X19	Y19	Z19	X20	Y20	Z20	X21	Y21	Z21	X22	Y22	Z22	X23	Y23	Z23	X24	Y24	Z24	X25	Y25	Z25	X26	Y26	Z26	X27	Y27	Z27	X28	Y28	Z28	X29	Y29	Z29	X30	Y30	Z30	X31	Y31	Z31	X32	Y32	Z32	X33	Y33	Z33	X34	Y34	Z34	X35	Y35	Z35	X36	Y36	Z36	X37	Y37	Z37	X38	Y38	Z38	X39	Y39	Z39	X40	Y40	Z40	X41	Y41	Z41	X42	Y42	Z42	X43	Y43	Z43	X44	Y44	Z44	X45	Y45	Z45	X46	Y46	Z46	X47	Y47	Z47	X48	Y48	Z48	X49	Y49	Z49	X50	Y50	Z50	X51	Y51	Z51	X52	Y52	Z52	X53	Y53	Z53	

332	3.31	-373.204833984375	968.5828247070312	-439.67431640625	-413.7170715332031	989.6820678710938	-606.894775390625	-382.9896850585938	1051.400634765625	-539.8277587890625	-125.3536834716797	1219.72998046875	-580.2252807617188	-390.4181823730469	1169.590576171875	-547.890625	-333.6981811523438	1411.741088867188	-574.5272827148438	-184.0039672851562	1322.08837890625	-577.6962890625	-387.3546142578125	1277.659545898438	-493.5912170410156	-359.2251281738281	1374.495971679688	-675.0950927734375	-274.7847900390625	1379.739135742188	-731.5157470703125	-307.0064086914062	1271.953002929688	-814.2665405273438	-282.2461242675781	1086.153198242188	-873.8443603515625	-322.2514038085938	1042.21337890625	-809.927001953125	-126.0388565063477	936.9974975585938	-941.3336791992188	-180.7255554199219	909.7259521484375	-980.274658203125	-248.3017578125	1002.902160644531	-920.7681274414062	-44.04818725585938	793.8041381835938	-1026.368774414062	-137.6761474609375	842.4052734375	-1014.234741210938	-79.144775390625	874.3549194335938	-1009.091064453125	-261.0421142578125	1391.60205078125	-420.8824768066406	-276.8498229980469	1345.16650390625	-351.3923950195312	-356.9508666992188	1100.239624023438	-278.1758117675781	-376.3419494628906	1083.49755859375	-370.0868530273438	-289.465087890625	860.0691528320312	-279.7720642089844	-348.7639465332031	872.4189453125	-217.9868774414062	-349.8336486816406	1032.530517578125	-252.4328002929688	-311.2985229492188	677.29052734375	-243.0118713378906	-282.8367309570312	748.034423828125	-234.2919769287109	-342.9131774902344	762.3447265625	-198.8911743164062	-297.0906372070312	1571.140380859375	-517.017333984375	-96.75397491455078	1581.07763671875	-586.1904907226562	-121.8056182861328	1572.926635742188	-497.1833801269531	-258.1725158691406	1574.145629882812	-657.8920288085938	-375.5270385742188	950.3841552734375	-721.8265380859375	-249.6817626953125	909.501708984375	-369.6318054199219	-156.8521270751953	925.7286987304688	-470.1444396972656	-229.3806610107422	943.83447265625	-711.7234497070312	-377.5690612792969	481.7984008789062	-714.5138549804688	-364.4459533691406	624.6785278320312	-732.0491943359375	-545.6952514648438	57.82045745849609	-658.81201171875	-467.9298400878906	266.7728576660156	-695.1326293945312	-331.9007263183594	35.31819152832031	-657.9686889648438	-390.8011169433594	31.47245788574219	-599.9861450195312	-432.0892639160156	42.57224273681641	-704.4586181640625	-575.0748901367188	61.42692184448242	-589.786376953125	-82.83702850341797	480.9624938964844	-503.8373718261719	-151.1103057861328	723.0975952148438	-414.0286865234375	-50.93728637695312	38.07095336914062	-601.4845581054688	-48.41963195800781	365.4791259765625	-539.6334228515625	112.2785568237305	91.37860107421875	-701.838134765625	49.94433975219727	72.8223876953125	-724.8492431640625	54.72389984130859	47.2537727355957	-610.1361083984375	-113.1188125610352	29.52084732055664	-633.6495971679688	
333	3.32	-364.8514709472656	966.311279296875	-442.4617919921875	-404.8544311523438	987.7902221679688	-609.7838134765625	-374.6526489257812	1049.27978515625	-542.7694702148438	-116.7859420776367	1217.478149414062	-580.8970947265625	-381.8971862792969	1167.347900390625	-551.2213134765625	-324.9651794433594	1409.563842773438	-576.8577880859375	-175.2704315185547	1319.935180664062	-578.583251953125	-379.5026245117188	1275.260864257812	-496.886962890625	-349.3923034667969	1372.517333984375	-677.8678588867188	-264.3624267578125	1377.91064453125	-733.2285766601562	-294.9583129882812	1270.202392578125	-816.63818359375	-267.7214965820312	1085.385620117188	-876.4927978515625	-308.2982482910156	1040.229858398438	-813.823974609375	-106.8304061889648	941.7512817382812	-942.8820190429688	-159.8129272460938	913.4412841796875	-983.280029296875	-231.2923736572266	1003.783203125	-923.781494140625	-18.71801376342773	802.4105834960938	-1028.1396484375	-114.1211700439453	847.88818359375	-1017.232849121094	-56.74702835083008	881.5524291992188	-1010.507263183594	-254.2731628417969	1389.158081054688	-422.4890747070312	-271.0702209472656	1342.7548828125	-353.4183349609375	-354.20556640625	1098.602416992188	-281.8426208496094	-371.6405944824219	1081.80517578125	-374.0645141601562	-288.9996643066406	857.7515869140625	-281.4102783203125	-349.3664245605469	870.9049682617188	-220.9664001464844	-348.1353759765625	1030.935180664062	-255.7842407226562	-313.1179809570312	675.2999267578125	-244.5016479492188	-284.2599487304688	745.843994140625	-235.4556427001953	-344.9463500976562	760.8272705078125	-201.4521484375	-289.6186218261719	1568.736450195312	-518.927734375	-88.41219329833984	1579.424072265625	-585.3460083007812	-114.6216354370117	1571.091674804688	-496.6502685546875	-248.7964019775391	1572.052368164062	-659.2237548828125	-366.3903198242188	948.458251953125	-724.5966186523438	-241.6592102050781	906.754638671875	-372.0443725585938	-148.3200225830078	923.1593627929688	-472.1154479980469	-220.2647857666016	941.67822265625	-713.7905883789062	-373.1767883300781	480.5833435058594	-715.4844970703125	-358.41796875	623.1827392578125	-733.5729370117188	-545.5590209960938	58.382080078125	-658.892333984375	-465.7018432617188	266.47607421875	-695.6621704101562	-331.9317626953125	35.27288818359375	-657.9548950195312	-390.7761535644531	31.38660049438477	-599.9202270507812	-431.9287719726562	42.68423843383789	-704.4053344726562	-575.0729370117188	62.13065338134766	-589.9548950195312	-78.32372283935547	476.6771545410156	-505.9480895996094	-144.8831481933594	719.0055541992188	-415.1726379394531	-22.43530654907227	37.85525512695312	-609.181640625	-39.27927780151367	364.1033325195312	-541.44189453125	142.1112213134766	98.40431213378906	-702.4644775390625	81.28363037109375	78.21168518066406	-727.955078125	82.94033813476562	50.74304962158203	-613.6533203125	-83.21033477783203	27.8759708404541	-643.7108154296875	
334	3.33	-356.2542724609375	963.8350219726562	-445.0797729492188	-395.8656921386719	985.7073364257812	-612.5076293945312	-366.1005249023438	1046.946044921875	-545.5260009765625	-108.1633529663086	1215.061401367188	-581.535400390625	-373.3036499023438	1164.919799804688	-554.3602905273438	-316.1306457519531	1407.208740234375	-578.9857177734375	-166.4304809570312	1317.661499023438	-579.3933715820312	-371.5062561035156	1272.648803710938	-500.0202026367188	-339.5475769042969	1370.382080078125	-680.4315795898438	-253.9675445556641	1375.949584960938	-734.7926635742188	-282.9898376464844	1268.293090820312	-818.788330078125	-253.3704528808594	1084.448974609375	-878.8274536132812	-294.4292907714844	1038.123168945312	-817.3710327148438	-88.01722717285156	946.246337890625	-943.8086547851562	-139.2446594238281	917.0350341796875	-985.661376953125	-214.454833984375	1004.525207519531	-926.345947265625	5.89621639251709	810.7288818359375	-1028.981689453125	-91.04032135009766	853.2340087890625	-1019.465698242188	-34.864990234375	888.46923828125	-1011.156921386719	-247.3915252685547	1386.510009765625	-423.9697875976562	-265.0547485351562	1340.045532226562	-355.337158203125	-350.9403686523438	1096.622192382812	-285.47412109375	-366.5630798339844	1079.819702148438	-377.9637145996094	-288.2637023925781	855.116943359375	-283.2090759277344	-349.6269836425781	869.0818481445312	-224.1130981445312	-345.9616394042969	1029.015747070312	-259.1672668457031	-314.9062194824219	673.0095825195312	-246.4640350341797	-285.5714111328125	743.27099609375	-237.0179595947266	-346.7984924316406	758.9754638671875	-204.3577880859375	-282.05029296875	1566.187255859375	-520.709228515625	-80.04167175292969	1577.633178710938	-584.4622192382812	-107.3457489013672	1569.11376953125	-496.0757751464844	-239.4010314941406	1569.823974609375	-660.4213256835938	-357.1559753417969	946.3626098632812	-727.2267456054688	-233.3819732666016	903.7606201171875	-374.3699645996094	-139.6521148681641	920.2952880859375	-474.0904235839844	-211.0666961669922	939.3660278320312	-715.8811645507812	-368.5829162597656	479.2810974121094	-716.5020751953125	-352.2557678222656	621.5977783203125	-735.0872192382812	-545.432373046875	59.00745010375977	-659.0093994140625	-463.2924194335938	266.1235046386719	-696.25146484375	-331.9532470703125	35.21102142333984	-657.9283447265625	-390.7680358886719	31.28806114196777	-599.855712890625	-431.7681884765625	42.80354309082031	-704.352294921875	-575.0650634765625	62.90379333496094	-590.1752319335938	-73.41617584228516	472.3321228027344	-508.09228515625	-138.5760040283203	714.6043701171875	-416.4140930175781	4.30014705657959	38.24451446533203	-615.7789306640625	-30.32597923278809	362.7230834960938	-543.1611938476562	169.8973388671875	105.6775817871094	-701.8511352539062	110.6162948608398	84.12387847900391	-729.802978515625	109.1521987915039	54.54563522338867	-616.029296875	-55.03816223144531	27.11870956420898	-652.5673217773438	
335	3.34	-347.4251708984375	961.1900634765625	-447.5157775878906	-386.7469177246094	983.4653930664062	-615.0547485351562	-357.3187866210938	1044.407958984375	-548.1104736328125	-99.47373199462891	1212.500732421875	-582.12939453125	-364.6159362792969	1162.329467773438	-557.3158569335938	-307.2046813964844	1404.70166015625	-580.9276733398438	-157.4676818847656	1315.29052734375	-580.125244140625	-363.3597106933594	1269.844482421875	-503.0106811523438	-329.6868286132812	1368.115600585938	-682.7977294921875	-243.5825042724609	1373.881469726562	-736.2111206054688	-271.0803527832031	1266.2509765625	-820.7215576171875	-239.1883239746094	1083.357421875	-880.8523559570312	-280.6679382324219	1035.914916992188	-820.5709228515625	-69.6212158203125	950.4588623046875	-944.1437377929688	-119.0734939575195	920.46630859375	-987.43115234375	-197.8223876953125	1005.122863769531	-928.4678955078125	29.75385475158691	818.6826782226562	-1028.91943359375	-68.47512054443359	858.3904418945312	-1020.945556640625	-13.54013347625732	895.0560913085938	-1011.069091796875	-240.3973541259766	1383.678955078125	-425.3260803222656	-258.8184509277344	1337.065063476562	-357.1462707519531	-347.1596374511719	1094.312255859375	-289.0495910644531	-361.1159057617188	1077.55615234375	-381.7698059082031	-287.2339172363281	852.1875	-285.160400390625	-349.5122375488281	866.9664306640625	-227.4061279296875	-343.2919006347656	1026.783935546875	-262.5625	-316.646728515625	670.442626953125	-248.9035949707031	-286.7286987304688	740.3349609375	-238.9810180664062	-348.4211120605469	756.81396484375	-207.5864562988281	-274.3784484863281	1563.530029296875	-522.3563842773438	-71.62818145751953	1575.727905273438	-583.5369873046875	-99.96602630615234	1567.016479492188	-495.4607543945312	-229.978515625	1567.495483398438	-661.4863891601562	-347.8412475585938	944.1292724609375	-729.7084350585938	-224.8662719726562	900.5759887695312	-376.6029968261719	-130.8596649169922	917.1826171875	-476.0589904785156	-201.7831878662109	936.9141845703125	-717.9913940429688	-363.7517700195312	477.9053649902344	-717.5916748046875	-345.9277038574219	619.9434204101562	-736.6065673828125	-545.2980346679688	59.71323394775391	-659.1702880859375	-460.6882934570312	265.7321166992188	-696.9175415039062	-331.9651489257812	35.13618469238281	-657.8926391601562	-390.7787170410156	31.19292259216309	-599.7982177734375	-431.6079711914062	42.93009185791016	-704.3090209960938	-575.0477905273438	63.7962532043457	-590.450439453125	-67.96337127685547	468.0836181640625	-510.2555236816406	-132.1049652099609	710.0352783203125	-417.7933654785156	28.97188568115234	38.99337005615234	-621.3303833007812	-21.44571876525879	361.3416442871094	-544.8375854492188	195.3083953857422	112.8354721069336	-700.3442993164062	137.5601501464844	90.15530395507812	-730.6444091796875	133.1307220458984	58.41009521484375	-617.45947265625	-28.93240165710449	26.9323844909668	-660.20068359375	
